<?xml version="1.0" encoding="UTF-8" standalone="no"?>
<!-- Generator: Adobe Illustrator 18.0.0, SVG Export Plug-In . SVG Version: 6.00 Build 0)  -->

<svg
   xmlns:dc="http://purl.org/dc/elements/1.1/"
   xmlns:cc="http://creativecommons.org/ns#"
   xmlns:rdf="http://www.w3.org/1999/02/22-rdf-syntax-ns#"
   xmlns:svg="http://www.w3.org/2000/svg"
   xmlns="http://www.w3.org/2000/svg"
   xmlns:sodipodi="http://sodipodi.sourceforge.net/DTD/sodipodi-0.dtd"
   xmlns:inkscape="http://www.inkscape.org/namespaces/inkscape"
   version="1.1"
   id="Capa_1"
   x="0px"
   y="0px"
   viewBox="0 0 464.854 464.854"
   style="enable-background:new 0 0 464.854 464.854;"
   xml:space="preserve"
   sodipodi:docname="cat2.svg"
   inkscape:version="0.92.4 (5da689c313, 2019-01-14)"><metadata
   id="metadata373"><rdf:RDF><cc:Work
       rdf:about=""><dc:format>image/svg+xml</dc:format><dc:type
         rdf:resource="http://purl.org/dc/dcmitype/StillImage" /></cc:Work></rdf:RDF></metadata><defs
   id="defs371" /><sodipodi:namedview
   pagecolor="#ffffff"
   bordercolor="#666666"
   borderopacity="1"
   objecttolerance="10"
   gridtolerance="10"
   guidetolerance="10"
   inkscape:pageopacity="0"
   inkscape:pageshadow="2"
   inkscape:window-width="1920"
   inkscape:window-height="1001"
   id="namedview369"
   showgrid="false"
   inkscape:snap-to-guides="false"
   inkscape:zoom="1.4359536"
   inkscape:cx="-45.280836"
   inkscape:cy="185.80972"
   inkscape:window-x="-9"
   inkscape:window-y="-9"
   inkscape:window-maximized="1"
   inkscape:current-layer="Capa_1" />
<path
   d="m 459.959,183.13 -2.494,-0.924 c -7.507,-2.78 -12.771,-9.733 -13.409,-17.713 -0.205,-2.568 -1.714,-4.851 -3.996,-6.046 -0.603,-0.316 -13.12,-6.778 -28.026,-7.424 -1.425,-9.345 -2.35,-20.773 -2.361,-20.915 -0.231,-2.892 -2.11,-5.391 -4.823,-6.417 -2.714,-1.026 -5.776,-0.395 -7.862,1.62 -2.215,2.139 -20.586,20.38 -22.838,38.985 -8.341,6.99 -31.564,25.869 -38.899,31.827 -6.53,-0.286 -22.613,-0.578 -39.796,2.241 -13.078,2.146 -26.797,1.274 -39.674,-2.52 -20.531,-6.05 -50.9,-7.375 -87.822,-3.836 -21.839,2.094 -39.769,5.499 -54.176,8.235 -11.797,2.241 -26.351,5.005 -30.211,3.587 L 67.367,172.92 C 55.588,150.453 58.412,123.295 74.563,103.733 86.543,89.222 104.206,80.9 123.023,80.9 h 16.284 c 9.665,0 17.528,-7.863 17.528,-17.529 0,-9.666 -7.863,-17.529 -17.528,-17.529 h -16.553 c -29.976,0 -58.068,13.295 -77.072,36.477 -24.655,30.074 -29.539,72.075 -12.441,107.003 l 23.491,47.989 0.279,3.436 c -9.835,19.027 -12.145,41.238 -6.428,61.852 l -31.160097,12.96984 c -3.185,1.309 -9.7470862,10.77338 -9.248086,14.18038 L 12.258,412.597 c 0.54,3.683 3.699,6.412 7.421,6.412 h 33.667 c 4.142,0 7.5,-3.358 7.5,-7.5 v -5.014 c 0,-10.291 -6.717,-19.042 -15.998,-22.099 l -0.909,-23.625 59.21,-1.659 -0.124,1.662 c -0.997,13.36 7.71067,23.57962 18.95467,30.86462 21.58959,21.32561 47.21554,23.99018 78.71596,26.63173 l 8.80837,0.73865 c 4.12751,0.34612 7.5,-3.358 7.5,-7.5 v -0.716 c 0,-11.099 -6.605,-21.065 -16.828,-25.388 -1.691,-0.716 -23.29286,-13.32744 -35.32586,-18.38844 L 176.161,356.261 c 6.679,1.424 19.36,3.465 37.216,3.465 8.857,0 18.995,-0.508 30.29,-1.837 l 14.464,54.125 c 0.877,3.281 3.849,5.564 7.246,5.564 h 37.249 c 4.142,0 7.5,-3.358 7.5,-7.5 v -2.149 c 0,-11.946 -8.528,-21.937 -19.815,-24.208 l -2.82,-5.642 3.141,-19.632 23.974,-12.072 59.726,68.626 c 1.424,1.637 3.488,2.576 5.658,2.576 h 33.67 c 4.142,0 7.5,-3.358 7.5,-7.5 0,-7.169 -2.794,-13.91 -7.867,-18.983 -3.746,-3.746 -8.405,-6.247 -13.477,-7.297 l -24.252,-68.4 c 11.018,-7.208 18.279,-19.132 19.405,-32.51 2.146,-25.483 15.81299,-46.5608 40.20799,-54.2348 10.63391,-9.43479 27.05414,-18.56569 29.18101,-32.4062 l 0.466,-5.44 c 0.29,-3.364 -1.702,-6.504 -4.865,-7.676 z m -63.352,-34.062 c 0.214,1.611 0.445,3.223 0.689,4.791 l -4.677,1.788 c 1.175,-2.248 2.543,-4.47 3.988,-6.579 z M 46.711,182.73 C 32.187,153.059 36.335,117.379 57.279,91.832 73.424,72.14 97.287,60.845 122.752,60.845 h 16.553 c 1.394,0 2.528,1.134 2.528,2.529 0,1.395 -1.134,2.529 -2.528,2.529 h -16.284 c -23.309,0 -45.188,10.309 -60.027,28.283 -20.005,24.231 -23.504,57.871 -8.914,85.701 l 26.987,38.765 -9.328,18.165 z M 45.463,404.009 H 26.159 l -4.603,-73.261 17.325,15.159 -8.789,45.117 c 0.155,4.027 3.465,7.212 7.495,7.212 3.687,-10e-4 6.819,2.43 7.876,5.773 z M 38.881,345.907 21.556,330.748 62.644,313.863 c 3.631,-1.492 5.498,-5.533 4.278,-9.266 l -0.987,-3.021 c -2.736,-8.379 -3.81,-17.144 -3.304,-25.807 7.336,23.407 22.213,44.195 42.369,58.551 l -0.728,9.755 z m 171.84217,58.91308 C 190.03258,411.85491 143.66837,392.54697 119.451,371.459 l 30.641,-4.189 c 2.82888,7.40309 58.40881,36.77236 60.63117,37.55008 z M 293.512,402.576 h -22.375 l -11.132,-41.658 15.027,0.092 -2.733,17.079 c -0.248,1.549 -0.004,3.136 0.697,4.539 l 5.73,11.461 c 1.271,2.541 3.868,4.146 6.708,4.146 3.369,0 6.341,1.726 8.078,4.341 z m 68.634,-80.141 11.845,33.409 -21.313,11.426 -24.246,-27.859 z m 32.174,75.801 c 3.162,0 6.133,1.23 8.367,3.463 0.281,0.281 0.546,0.573 0.795,0.877 h -20.076 l -30.728,-35.306 21.313,-11.426 13.262,37.399 c 1.06,2.993 3.892,4.993 7.067,4.993 z M 380.023,281.627 c -0.865,10.275 -7.26,19.251 -16.688,23.425 -0.114,0.05 -0.226,0.103 -0.337,0.159 l -69.443,34.968 1.551,-9.693 23.125,-11.875 c 3.685,-1.892 5.138,-6.413 3.246,-10.098 -1.893,-3.685 -6.414,-5.138 -10.098,-3.246 l -26.504,13.61 c -2.125,1.091 -3.603,3.129 -3.98,5.487 l -5.863,36.646 -15.027,-0.092 -8.861,-33.156 18.102,-36.873 c 1.825,-3.718 0.291,-8.212 -3.427,-10.038 -3.718,-1.825 -8.212,-0.291 -10.038,3.427 l -19.341,39.398 c -0.799,1.628 -0.981,3.49 -0.513,5.241 l 3.825,14.314 c -29.136,3.176 -49.633,0.455 -58.942,-1.355 l 1.8,-32.388 c 0.23,-4.136 -2.937,-7.675 -7.072,-7.905 -4.117,-0.225 -7.674,2.937 -7.904,7.073 l -2.031,36.54 -15.511,22.074 -30.641,4.189 c -1.183,-2.988 -1.714,-6.25 -1.467,-9.57 l 2.296,-30.768 c 0.204,-2.725 -1.091,-5.345 -3.379,-6.838 -25.168,-16.43 -41.646,-44.124 -44.076,-74.082 l -1.086,-13.384 9.328,-18.165 c 7.897,1.574 19.194,-0.57 35.514,-3.67 14.104,-2.678 31.658,-6.012 52.809,-8.04 35.032,-3.359 63.439,-2.22 82.151,3.293 15.027,4.427 31.051,5.442 46.342,2.933 20.056,-3.29 39.095,-1.929 39.28,-1.915 1.91,0.145 3.802,-0.448 5.29,-1.655 1.481,-1.201 34.727,-28.179 42.867,-35.101 l 22.087,-8.445 c 6.543,-0.412 13.001,1.021 17.808,2.558 8.54034,11.17226 14.93269,17.94931 27.41451,22.39787 3.98957,6.66394 1.64467,11.75429 -8.85377,17.06752 l -15.60883,12.99962 C 402.94591,232.68701 382.4,253.402 380.023,281.627 Z"
   id="path336"
   inkscape:connector-curvature="0"
   sodipodi:nodetypes="cccccccccccccccccsssssccccccccsssscccccsssscccsccsssscccccsssscccccccccccccsssssccccccccccccccccccccccccccccccccsccccccsccccccsccccccccccccccccccccccccccccccccccccccccccccc" />
<g
   id="g338">
</g>
<g
   id="g340">
</g>
<g
   id="g342">
</g>
<g
   id="g344">
</g>
<g
   id="g346">
</g>
<g
   id="g348">
</g>
<g
   id="g350">
</g>
<g
   id="g352">
</g>
<g
   id="g354">
</g>
<g
   id="g356">
</g>
<g
   id="g358">
</g>
<g
   id="g360">
</g>
<g
   id="g362">
</g>
<g
   id="g364">
</g>
<g
   id="g366">
</g>
</svg>