<?xml version="1.0" encoding="UTF-8" standalone="no"?>
<!-- Generator: Adobe Illustrator 19.0.0, SVG Export Plug-In . SVG Version: 6.00 Build 0)  -->

<svg
   xmlns:dc="http://purl.org/dc/elements/1.1/"
   xmlns:cc="http://creativecommons.org/ns#"
   xmlns:rdf="http://www.w3.org/1999/02/22-rdf-syntax-ns#"
   xmlns:svg="http://www.w3.org/2000/svg"
   xmlns="http://www.w3.org/2000/svg"
   xmlns:sodipodi="http://sodipodi.sourceforge.net/DTD/sodipodi-0.dtd"
   xmlns:inkscape="http://www.inkscape.org/namespaces/inkscape"
   version="1.1"
   id="Layer_1"
   x="0px"
   y="0px"
   viewBox="0 0 512 512"
   style="enable-background:new 0 0 512 512;"
   xml:space="preserve"
   sodipodi:docname="llongdress.svg"
   inkscape:version="0.92.4 (5da689c313, 2019-01-14)"><metadata
   id="metadata3833"><rdf:RDF><cc:Work
       rdf:about=""><dc:format>image/svg+xml</dc:format><dc:type
         rdf:resource="http://purl.org/dc/dcmitype/StillImage" /><dc:title></dc:title></cc:Work></rdf:RDF></metadata><defs
   id="defs3831" /><sodipodi:namedview
   pagecolor="#ffffff"
   bordercolor="#666666"
   borderopacity="1"
   objecttolerance="10"
   gridtolerance="10"
   guidetolerance="10"
   inkscape:pageopacity="0"
   inkscape:pageshadow="2"
   inkscape:window-width="1920"
   inkscape:window-height="1001"
   id="namedview3829"
   showgrid="false"
   inkscape:zoom="1.5820312"
   inkscape:cx="256"
   inkscape:cy="256"
   inkscape:window-x="-9"
   inkscape:window-y="-9"
   inkscape:window-maximized="1"
   inkscape:current-layer="Layer_1" />
<g
   id="g3778">
	<g
   id="g3776">
		<path
   d="M392.773,92.542c-0.396-13.04-8.399-24.788-20.392-29.928L334.244,46.27c-1.946-4.123-4.428-8.551-7.592-12.982    c-10.845-15.184-31.907-33.284-70.654-33.286c-0.004-0.003,0-0.001-0.002,0c0,0-0.001,0-0.002,0    c-38.746,0.002-59.809,18.102-70.654,33.286c-3.359,4.703-5.952,9.406-7.948,13.742l-37.48,15.634    c-12.171,5.076-20.294,16.873-20.694,30.055l-8.05,265.653c-0.102,3.365,1.91,6.436,5.036,7.686l35.662,14.265l-6.486,123.238    c-0.115,2.197,0.677,4.343,2.19,5.94c1.514,1.595,3.616,2.499,5.816,2.499h205.227c2.2,0,4.302-0.904,5.816-2.499    c1.514-1.596,2.306-3.743,2.19-5.94l-6.486-123.238l35.662-14.265c3.125-1.251,5.137-4.322,5.036-7.686L392.773,92.542z     M298.217,61.71V27.591c15.941,10.723,22.642,26.294,25.264,34.992l-18.717,6.239c-2.371,0.79-4.237,2.64-5.048,5.005    c-0.81,2.363-0.474,4.968,0.913,7.048l13.792,20.688l-43.596,52.644l22.011-61.228C296.406,82.911,298.217,72.391,298.217,61.71z     M282.185,61.711c0,8.849-1.501,17.567-4.448,25.877l-21.884,60.875l-21.584-60.844c-2.959-8.342-4.459-17.058-4.459-25.908    v-11.47h52.376V61.711z M229.809,19.871c7.407-2.392,16.055-3.836,26.183-3.835c10.133,0,18.784,1.445,26.192,3.838v14.333    h-52.376V19.871z M213.777,27.588v34.123c0,10.681,1.811,21.201,5.382,31.269l21.937,61.838l-43.547-53.224l13.812-20.719    c1.386-2.079,1.723-4.685,0.913-7.048c-0.811-2.364-2.678-4.214-5.048-5.005l-18.715-6.238    C191.138,53.873,197.842,38.306,213.777,27.588z M152.755,363.411l-25.393-10.158l0.712-23.474l25.906,10.362L152.755,363.411z     M222.329,231.069v264.898h-60.494l7.399-140.59l30.491-15.246c3.96-1.981,5.566-6.795,3.585-10.756    c-1.98-3.959-6.794-5.565-10.755-3.585l-22.353,11.176l8.289-157.504c0.233-4.422-3.163-8.194-7.585-8.427    c-4.428-0.265-8.194,3.162-8.427,7.584l-7.61,144.609l-26.279-10.511l6.652-219.512c0.21-6.905,4.464-13.084,10.84-15.744    l24.991-10.424c-0.394,3.728,1.848,7.251,5.43,8.445l15.697,5.232l-11.28,16.921c-1.955,2.932-1.766,6.796,0.466,9.523    l63.816,77.997l-11.205,13.531C226.472,207.772,222.329,219.273,222.329,231.069z M333.504,179.463l8.289,157.504l-22.353-11.176    c-3.959-1.981-8.774-0.375-10.755,3.585c-1.981,3.96-0.375,8.776,3.585,10.756l30.491,15.246l7.4,140.59h-111.8v-264.9    c0-8.071,2.835-15.94,7.982-22.157l84.232-101.717c2.259-2.728,2.461-6.613,0.496-9.559l-11.28-16.921l15.697-5.232    c3.675-1.225,5.948-4.903,5.401-8.738c-0.004-0.031-0.015-0.104-0.03-0.197l25.207,10.802c6.282,2.693,10.475,8.846,10.682,15.677    l6.657,219.69l-26.279,10.511l-7.61-144.609c-0.233-4.421-4-7.848-8.427-7.584C336.667,171.269,333.272,175.041,333.504,179.463z     M359.241,363.411l-1.225-23.27l25.906-10.362l0.711,23.474L359.241,363.411z"
   id="path3774" />
	</g>
</g>
<g
   id="g3784">
	<g
   id="g3782">
		<path
   d="M264.634,247.985h-0.086c-4.427,0-7.974,3.588-7.974,8.017c0,4.428,3.632,8.017,8.059,8.017    c4.427,0,8.017-3.588,8.017-8.017C272.651,251.573,269.062,247.985,264.634,247.985z"
   id="path3780" />
	</g>
</g>
<g
   id="g3790">
	<g
   id="g3788">
		<path
   d="M264.634,350.598h-0.086c-4.427,0-7.974,3.588-7.974,8.017s3.632,8.017,8.059,8.017c4.427,0,8.017-3.588,8.017-8.017    S269.062,350.598,264.634,350.598z"
   id="path3786" />
	</g>
</g>
<g
   id="g3796">
	<g
   id="g3794">
		<path
   d="M264.634,299.292h-0.086c-4.427,0-7.974,3.588-7.974,8.017s3.632,8.017,8.059,8.017c4.427,0,8.017-3.588,8.017-8.017    S269.062,299.292,264.634,299.292z"
   id="path3792" />
	</g>
</g>
<g
   id="g3798">
</g>
<g
   id="g3800">
</g>
<g
   id="g3802">
</g>
<g
   id="g3804">
</g>
<g
   id="g3806">
</g>
<g
   id="g3808">
</g>
<g
   id="g3810">
</g>
<g
   id="g3812">
</g>
<g
   id="g3814">
</g>
<g
   id="g3816">
</g>
<g
   id="g3818">
</g>
<g
   id="g3820">
</g>
<g
   id="g3822">
</g>
<g
   id="g3824">
</g>
<g
   id="g3826">
</g>
</svg>