<?xml version="1.0" encoding="iso-8859-1"?>
<!-- Generator: Adobe Illustrator 19.0.0, SVG Export Plug-In . SVG Version: 6.00 Build 0)  -->
<svg version="1.1" id="Capa_1" xmlns="http://www.w3.org/2000/svg" xmlns:xlink="http://www.w3.org/1999/xlink" x="0px" y="0px"
	 viewBox="0 0 511.91 511.91" style="enable-background:new 0 0 511.91 511.91;" xml:space="preserve">
<g>
	<g>
		<path d="M343.939,0.002H167.971c-2.211,0-4,1.789-4,4c0,2.21,1.79,3.999,4,3.999h175.968c2.21,0,3.999-1.789,3.999-3.999
			C347.938,1.791,346.149,0.002,343.939,0.002z"/>
	</g>
</g>
<g>
	<g>
		<path d="M355.82,35.028l-7.999-31.994c-0.532-2.149-2.749-3.457-4.851-2.91c-2.147,0.535-3.444,2.707-2.913,4.847l7.998,31.994
			c0.453,1.82,2.086,3.031,3.883,3.031c0.321,0,0.648-0.04,0.968-0.121C355.054,39.34,356.351,37.168,355.82,35.028z"/>
	</g>
</g>
<g>
	<g>
		<path d="M168.94,0.124c-2.187-0.539-4.32,0.762-4.851,2.91l-7.999,31.994c-0.53,2.14,0.766,4.312,2.914,4.847
			c0.328,0.082,0.649,0.121,0.969,0.121c1.796,0,3.428-1.211,3.882-3.031l7.999-31.994C172.385,2.831,171.088,0.659,168.94,0.124z"
			/>
	</g>
</g>
<g>
	<g>
		<path d="M351.939,31.997H159.973c-2.211,0-3.999,1.789-3.999,4c0,2.21,1.788,3.999,3.999,3.999h191.965
			c2.21,0,3.999-1.789,4-3.999C355.938,33.786,354.149,31.997,351.939,31.997z"/>
	</g>
</g>
<g>
	<g>
		<path d="M162.089,40.605c-1.859-1.168-4.336-0.601-5.507,1.27C77.057,169.109,36.432,464.411,36.034,467.379
			c-0.297,2.195,1.234,4.21,3.421,4.499c0.188,0.031,0.367,0.039,0.547,0.039c1.969,0,3.687-1.452,3.952-3.46
			c0.398-2.953,40.798-296.567,119.408-422.341C164.534,44.241,163.964,41.773,162.089,40.605z"/>
	</g>
</g>
<g>
	<g>
		<path d="M475.876,467.379c-0.398-2.967-41.024-298.27-120.548-425.504c-1.172-1.872-3.648-2.438-5.507-1.27
			c-1.875,1.168-2.445,3.636-1.273,5.511c78.611,125.774,119.01,419.388,119.408,422.341c0.265,2.008,1.984,3.46,3.952,3.46
			c0.18,0,0.359-0.008,0.547-0.039C474.643,471.589,476.173,469.574,475.876,467.379z"/>
	</g>
</g>
<g>
	<g>
		<path d="M475.416,465.98c-1.079-1.937-3.524-2.617-5.437-1.562c-0.718,0.397-72.964,39.493-214.024,39.493
			S42.65,464.815,41.932,464.418c-1.922-1.054-4.367-0.375-5.437,1.562c-1.071,1.93-0.375,4.36,1.554,5.438
			c2.976,1.647,74.542,40.492,217.906,40.492c143.365,0,214.931-38.845,217.906-40.492
			C475.79,470.339,476.485,467.91,475.416,465.98z"/>
	</g>
</g>
<g>
	<g>
		<path d="M467.566,454.163c-0.906-2.015-3.28-2.945-5.28-2.015c-24.003,10.756-92.14,35.767-206.33,35.767
			c-102.849,0-168.493-20.317-198.464-32.424c-3.078-1.243-5.702-2.382-7.882-3.351c-1.991-0.891-4.382,0.008-5.28,2.03
			c-0.898,2.015,0.008,4.383,2.031,5.281c2.241,1,4.96,2.171,8.131,3.46c30.518,12.326,97.263,33.002,201.463,33.002
			c115.729,0,185.131-25.503,209.595-36.469C467.566,458.546,468.472,456.179,467.566,454.163z"/>
	</g>
</g>
<g>
	<g>
		<path d="M185.756,48.416c-1.968-0.972-4.374-0.191-5.366,1.789c-71.526,143.048-88.234,404.379-88.398,407.004
			c-0.132,2.203,1.539,4.1,3.75,4.233c0.078,0.008,0.164,0.008,0.242,0.008c2.101,0,3.859-1.632,3.991-3.757
			c0.156-2.601,16.77-262.304,87.57-403.911C188.529,51.806,187.733,49.404,185.756,48.416z"/>
	</g>
</g>
<g>
	<g>
		<path d="M255.955,47.994c-2.21,0-3.999,1.789-3.999,4v423.922c0,2.211,1.789,4,3.999,4c2.211,0,3.999-1.789,3.999-4V51.994
			C259.954,49.783,258.166,47.994,255.955,47.994z"/>
	</g>
</g>
<g>
	<g>
		<path d="M221.063,48.145c-2.155-0.597-4.342,0.625-4.944,2.75c-47.609,166.61-44.187,418.249-44.148,420.771
			c0.039,2.188,1.819,3.937,3.999,3.937c0.023,0,0.039,0,0.062,0c2.211-0.039,3.968-1.851,3.937-4.062
			c-0.039-2.515-3.436-252.985,43.836-418.451C224.414,50.969,223.188,48.754,221.063,48.145z"/>
	</g>
</g>
<g>
	<g>
		<path d="M331.52,50.205c-0.991-1.98-3.389-2.769-5.366-1.789c-1.977,0.988-2.772,3.39-1.789,5.366
			c70.793,141.583,87.414,401.309,87.57,403.911c0.133,2.125,1.89,3.757,3.992,3.757c0.078,0,0.164,0,0.242-0.008
			c2.21-0.132,3.882-2.03,3.749-4.233C419.754,454.584,403.046,193.254,331.52,50.205z"/>
	</g>
</g>
<g>
	<g>
		<path d="M295.791,50.895c-0.601-2.121-2.812-3.343-4.944-2.75c-2.125,0.61-3.351,2.824-2.742,4.945
			c47.273,165.466,43.875,415.936,43.836,418.451c-0.031,2.211,1.727,4.024,3.937,4.062c0.023,0,0.039,0,0.062,0
			c2.18,0,3.961-1.749,3.999-3.937C339.979,469.144,343.399,217.505,295.791,50.895z"/>
	</g>
</g>
<g>
	<g>
		<path d="M207.964,15.999h-43.992c-2.21,0-3.999,1.789-3.999,4c0,2.21,1.789,3.999,3.999,3.999h43.992
			c2.211,0,3.999-1.789,3.999-3.999C211.963,17.788,210.175,15.999,207.964,15.999z"/>
	</g>
</g>
<g>
	<g>
		<path d="M347.938,15.999h-43.992c-2.21,0-3.999,1.789-3.999,4c0,2.21,1.789,3.999,3.999,3.999h43.992c2.211,0,4-1.789,4-3.999
			C351.938,17.788,350.149,15.999,347.938,15.999z"/>
	</g>
</g>
<g>
</g>
<g>
</g>
<g>
</g>
<g>
</g>
<g>
</g>
<g>
</g>
<g>
</g>
<g>
</g>
<g>
</g>
<g>
</g>
<g>
</g>
<g>
</g>
<g>
</g>
<g>
</g>
<g>
</g>
</svg>
