<?xml version="1.0" encoding="iso-8859-1"?>
<!-- Generator: Adobe Illustrator 19.0.0, SVG Export Plug-In . SVG Version: 6.00 Build 0)  -->
<svg version="1.1" id="Layer_1" xmlns="http://www.w3.org/2000/svg" xmlns:xlink="http://www.w3.org/1999/xlink" x="0px" y="0px"
	 viewBox="0 0 512.001 512.001" style="enable-background:new 0 0 512.001 512.001;" xml:space="preserve">
<g>
	<g>
		<path d="M375.154,503.317c-0.043-0.515-4.408-52.306-13.957-115.964c-10.483-69.885-22.81-126.225-36.747-168.046l21.026-7.009
			c3.134-1.045,5.307-3.906,5.472-7.205l7.078-141.56c1.037-20.732-13.532-39.438-33.888-43.509l-13.236-2.648L295.873,2.347
			C294.307,0.781,292.255,0,290.202,0h-68.404c-2.052,0-4.106,0.781-5.672,2.348l-15.386,15.386l-11.449,2.291
			c-20.356,4.071-34.924,22.777-33.888,43.509l7.078,141.56c0.165,3.3,2.338,6.16,5.472,7.205l19.741,6.58
			c-13.996,41.865-26.373,98.349-36.892,168.475c-9.548,63.658-13.914,115.448-13.957,115.964c-0.186,2.234,0.572,4.444,2.09,6.094
			c1.518,1.649,3.658,2.589,5.899,2.589h222.33c2.241,0,4.381-0.938,5.899-2.589C374.582,507.762,375.34,505.551,375.154,503.317z
			 M290.205,19.353l7.008,7.009l-16.799,27.996c-0.041,0.067-0.134,0.223-0.393,0.255c-0.258,0.033-0.388-0.097-0.444-0.153
			l-12.24-12.24L290.205,19.353z M270.85,16.033L256,30.885l-14.851-14.851H270.85z M221.795,19.353l22.868,22.868l-12.241,12.241
			c-0.056,0.055-0.185,0.183-0.444,0.153c-0.259-0.032-0.353-0.188-0.393-0.255l-16.799-27.998L221.795,19.353z M178.222,198.821
			l-6.805-136.087c-0.643-12.86,8.393-24.462,21.019-26.987l8.289-1.658l17.112,28.52c2.643,4.406,7.084,7.292,12.182,7.921
			c0.689,0.086,1.377,0.127,2.06,0.127c4.367,0,8.537-1.715,11.679-4.855l4.225-4.226v31.953c0,4.427,3.589,8.017,8.017,8.017
			c4.427,0,8.017-3.589,8.017-8.017V61.575l4.224,4.224c3.141,3.141,7.311,4.855,11.679,4.855c0.683,0,1.371-0.042,2.06-0.127
			c5.1-0.627,9.54-3.515,12.182-7.921l17.265-28.775l9.566,1.913c12.627,2.526,21.662,14.128,21.02,26.987l-6.805,136.087
			l-16.108,5.369c-1.247-3.318-2.505-6.523-3.776-9.619v-32.191l8.502-76.519c0.49-4.401-2.682-8.364-7.082-8.853
			c-4.394-0.487-8.364,2.682-8.853,7.082l-7.758,69.831h-88.263l-7.759-69.829c-0.49-4.401-4.451-7.571-8.853-7.082
			c-4.401,0.49-7.571,4.453-7.083,8.853l8.503,76.529v32.178c-1.216,2.963-2.423,6.031-3.618,9.197L178.222,198.821z
			 M299.29,169.954v18.171h-43.285c-0.002,0-0.003,0-0.005,0c-0.002,0-0.003,0-0.005,0h-43.284v-18.171H299.29z M153.618,495.967
			c3.753-39.305,21.002-202.238,56.477-291.808h11.594l-7.887,102.534c-0.339,4.415,2.964,8.268,7.379,8.608
			c0.21,0.016,0.417,0.024,0.623,0.024c4.147,0,7.661-3.197,7.985-7.402l7.981-103.763h10.213v163.006
			c0,4.427,3.589,8.017,8.017,8.017c4.427,0,8.017-3.589,8.017-8.017V204.159h10.213l7.981,103.763
			c0.324,4.206,3.836,7.402,7.985,7.402c0.206,0,0.415-0.008,0.623-0.024c4.415-0.34,7.717-4.193,7.379-8.608l-7.887-102.534h11.594
			c35.474,89.57,52.724,252.503,56.477,291.808H153.618z"/>
	</g>
</g>
<g>
</g>
<g>
</g>
<g>
</g>
<g>
</g>
<g>
</g>
<g>
</g>
<g>
</g>
<g>
</g>
<g>
</g>
<g>
</g>
<g>
</g>
<g>
</g>
<g>
</g>
<g>
</g>
<g>
</g>
</svg>
