<?xml version="1.0" encoding="iso-8859-1"?>
<!-- Generator: Adobe Illustrator 18.0.0, SVG Export Plug-In . SVG Version: 6.00 Build 0)  -->
<!DOCTYPE svg PUBLIC "-//W3C//DTD SVG 1.1//EN" "http://www.w3.org/Graphics/SVG/1.1/DTD/svg11.dtd">
<svg version="1.1" id="Capa_1" xmlns="http://www.w3.org/2000/svg" xmlns:xlink="http://www.w3.org/1999/xlink" x="0px" y="0px"
	 viewBox="0 0 399.199 399.199" style="enable-background:new 0 0 399.199 399.199;" xml:space="preserve">
<path d="M354.334,118.897c-11.729-51.721-25.311-75.372-25.311-75.372C301.385,18.658,256.984,1.211,254.81,0.351
	c-1.539-0.609-3.279-0.417-4.65,0.515c-0.379,0.258-11.037,10.668-50.561,10.668h-0.002l0,0c-39.627,0-50.223-10.439-50.561-10.668
	c-1.371-0.932-3.113-1.124-4.65-0.515C142.213,1.21,94.488,18.658,70.17,43.522c-0.762,0.779-13.578,23.654-25.307,75.375
	c-10.734,47.333-22.34,129.157-16.695,250.19v25.111c0,2.76,2.238,5,5,5h45.336c2.416,0,4.486-1.729,4.918-4.105l4.568-25.082
	l9.141-38.57c1.355,5.461,2.895,10.711,4.635,15.709l4.525,25.914c0.418,2.393,2.496,4.141,4.926,4.141H287.98
	c2.43,0,4.508-1.748,4.926-4.141l4.525-25.914c1.74-4.998,3.279-10.248,4.635-15.711l9.139,38.572l4.568,25.082
	c0.434,2.377,2.504,4.105,4.92,4.105h45.338c2.762,0,5-2.24,5-5v-25.111C376.676,248.054,365.068,166.23,354.334,118.897z
	 M199.597,21.533L199.597,21.533h0.002c23.824,0,38.176-3.4,46.559-6.779c-5.727,15.147-24.424,26.286-46.559,26.286h-0.002l0,0
	c-22.135,0-40.832-11.139-46.557-26.286C161.424,18.133,175.773,21.533,199.597,21.533z M210.361,50.254l-10.764,11.517
	l-10.762-11.517c3.488,0.515,7.086,0.786,10.762,0.786l0,0h0.002C203.275,51.04,206.871,50.769,210.361,50.254z M74.332,389.199
	H38.168v-15.215h38.934L74.332,389.199z M94.793,126.687c-4.342,47.976-11.029,121.925-2.295,180.933L79.14,363.984H37.947
	c-5.066-116.893,6.127-196.08,16.498-242.118c8.771-38.941,18.416-61.26,22.438-69.556c6.85,3.216,20.727,12.565,20.727,35.573
	C97.609,95.57,96.367,109.302,94.793,126.687z M115.418,367.204l-2.842-16.287h174.045l-2.844,16.287H115.418z M296.705,306.87
	c-0.018,0.086-4.371,23.752-7.721,34.047H110.213c-3.35-10.291-7.703-33.963-7.723-34.06c-8.717-57.789-2.057-131.547,2.262-179.268
	c1.596-17.636,2.857-31.567,2.857-39.706c0-25.794-14.723-38.092-24.143-43.32c16.563-13.689,45.807-26.953,58.471-32.365
	c2.756,13.782,13.293,25.549,27.938,32.412l26.07,27.899c0.984,1.054,2.318,1.586,3.654,1.586c1.223,0,2.449-0.446,3.414-1.347
	c0.084-0.079,26.307-28.139,26.307-28.139c14.646-6.862,25.184-18.631,27.939-32.413c12.662,5.41,41.9,18.667,58.471,32.365
	c-9.42,5.228-24.141,17.527-24.141,43.321c0,8.139,1.26,22.068,2.855,39.704C298.765,175.311,305.426,249.077,296.705,306.87z
	 M361.031,389.199h-36.166l-2.771-15.215h38.938V389.199z M361.25,363.984h-41.195l-13.355-56.367
	c8.736-59.006,2.047-132.956-2.295-180.93c-1.572-17.385-2.814-31.116-2.814-38.803c0-23.015,13.885-32.363,20.721-35.573
	C331.474,71.278,369.935,163.781,361.25,363.984z"/>
<g>
</g>
<g>
</g>
<g>
</g>
<g>
</g>
<g>
</g>
<g>
</g>
<g>
</g>
<g>
</g>
<g>
</g>
<g>
</g>
<g>
</g>
<g>
</g>
<g>
</g>
<g>
</g>
<g>
</g>
</svg>
