<?xml version="1.0" encoding="iso-8859-1"?>
<!-- Generator: Adobe Illustrator 18.0.0, SVG Export Plug-In . SVG Version: 6.00 Build 0)  -->
<!DOCTYPE svg PUBLIC "-//W3C//DTD SVG 1.1//EN" "http://www.w3.org/Graphics/SVG/1.1/DTD/svg11.dtd">
<svg version="1.1" id="Capa_1" xmlns="http://www.w3.org/2000/svg" xmlns:xlink="http://www.w3.org/1999/xlink" x="0px" y="0px"
	 viewBox="0 0 482.97 482.97" style="enable-background:new 0 0 482.97 482.97;" xml:space="preserve">
<g>
	<path style="fill:#231F20;" d="M383.44,324.325h-0.932V75.732c0-13.156-7.347-24.902-19.225-30.682l-40.896-19.4
		c0.888-6.978-1.017-13.715-5.311-18.626c-4.041-4.623-9.783-7.188-15.685-7.015H181.578c-5.956-0.17-11.645,2.393-15.686,7.016
		c-4.425,5.063-6.311,12.066-5.229,19.184L119.752,45.02c-0.039,0.018-0.079,0.037-0.118,0.056
		c-11.825,5.754-19.172,17.5-19.172,30.656v248.593H99.53c-3.313,0-6,2.686-6,6v35.242c0,3.313,2.687,6,6,6h34.092
		c-3.9,25.818-6.605,55.551-6.605,88.41c0,2.751,1.853,5.064,4.379,5.772c25.38,11.479,67.748,17.221,110.124,17.221
		c42.375,0,84.742-5.742,110.122-17.22c2.525-0.707,4.381-3.021,4.381-5.773c0-32.859-2.705-62.592-6.605-88.41h34.023
		c3.314,0,6-2.687,6-6v-35.242C389.44,327.012,386.754,324.325,383.44,324.325z M370.508,75.732v248.593h-30.301
		c-1.947-8.074-3.921-15.43-5.824-22c-1.723-5.948-3.444-11.473-5.121-16.56v-43.15h9.826c3.313,0,6-2.686,6-6c0-3.313-2.687-6-6-6
		h-9.826v-84.737c0-3.13-2.406-5.734-5.526-5.981c-3.127-0.244-5.906,1.947-6.398,5.037l-16.043,100.672
		c-0.203,1.273,0.009,2.577,0.605,3.72c0.417,0.799,41.25,80.54,42.102,206.653c-9.483,3.93-21.561,7.195-35.448,9.668
		c-1.023-120.431-26.063-205.231-29.71-216.949l9.774-68.107c0.2-1.395-0.098-2.816-0.84-4.014l-21.403-34.519l35.875-24.523
		c1.515-1.035,2.472-2.705,2.6-4.536c0.128-1.83-0.589-3.617-1.944-4.853L275.119,82.83l33.439-0.05
		c2.962-0.004,5.478-2.169,5.923-5.098l6.031-39.641l37.574,17.825C365.749,59.594,370.508,67.206,370.508,75.732z M317.262,221.657
		v32.27c-1.68-3.869-2.999-6.664-3.814-8.333L317.262,221.657z M281.659,12.001c2.882,0,5.376,1.475,6.843,4.048
		c1.322,2.319,1.556,5.142,0.77,7.971h-95.295c-0.786-2.829-0.552-5.652,0.771-7.972c1.467-2.572,3.961-4.047,6.842-4.047
		C201.589,12.001,281.402,12.001,281.659,12.001z M282.529,36.02L267.28,60.762l-25.656,41.38l-25.648-41.366L200.717,36.02H282.529
		z M248.684,113.528l15.273-24.633l25.26,23.015l-29.171,19.942L248.684,113.528z M262.644,158.814l-68.611-46.905l25.259-23.015
		L262.644,158.814z M301.676,12.005c2.36-0.08,4.68,0.987,6.366,2.916c2.168,2.48,3.005,5.965,2.343,9.908l-6.993,45.959
		l-28.236,0.042l2.331-3.759l20.6-33.422c0.02-0.03,0.038-0.062,0.057-0.092c4.117-6.958,4.71-14.859,1.732-21.549
		C299.876,12.008,301.611,12.007,301.676,12.005z M174.927,14.921c1.687-1.929,4.005-2.998,6.366-2.916
		c0.065,0.002,2.079,0.003,2.079,0.003c-2.977,6.69-2.385,14.59,1.731,21.548c0.019,0.032,0.037,0.063,0.057,0.093l20.607,33.435
		l2.322,3.746l-28.513-0.042l-7.006-46.052C171.924,20.886,172.76,17.401,174.927,14.921z M105.53,336.325h30.213l-13.557,23.242
		H105.53V336.325z M139.037,455.981c0.854-125.893,41.686-205.856,42.102-206.654c0.597-1.143,0.809-2.447,0.605-3.72
		l-16.045-100.672c-0.468-2.939-3.003-5.027-5.881-5.049c-0.047-0.001-0.093-0.007-0.14-0.007c-0.06,0-0.118,0.007-0.178,0.009
		c-0.036,0.002-0.073,0.003-0.109,0.006c-3.18,0.151-5.713,2.769-5.713,5.985v84.737h-11.758c-3.313,0-6,2.687-6,6
		c0,3.314,2.687,6,6,6h11.758v43.256c0,0.056,0.007,0.11,0.009,0.166c-1.649,5.012-3.34,10.445-5.032,16.288
		c-1.903,6.57-3.877,13.926-5.824,22h-30.369V75.732c0-8.505,4.736-16.101,12.366-19.838l37.709-17.339l5.952,39.129
		c0.445,2.928,2.961,5.093,5.923,5.098l33.718,0.05l-27.785,25.316c-1.355,1.235-2.072,3.023-1.944,4.853
		c0.128,1.83,1.085,3.501,2.6,4.536l95.204,65.084l-9.434,65.732c-0.132,0.921-0.048,1.858,0.244,2.741
		c0.073,0.22,7.363,22.395,14.642,60.517c6.604,34.596,14.474,89.479,14.906,155.914c-16.727,2.282-35.454,3.516-55.043,3.516
		C199.741,471.039,161.859,465.438,139.037,455.981z M165.678,221.046l3.912,24.547c-0.83,1.702-2.187,4.577-3.912,8.561V221.046z
		 M377.44,359.567h-16.656l-13.557-23.242h30.213V359.567z"/>
	<path style="fill:#231F20;" d="M257.616,199.395c4.33,0,7.854-3.523,7.854-7.854c0-4.33-3.523-7.852-7.854-7.852
		c-4.33,0-7.854,3.522-7.854,7.852C249.762,195.872,253.286,199.395,257.616,199.395z"/>
	<path style="fill:#231F20;" d="M258.602,231.634c0-4.33-3.523-7.852-7.853-7.852c-4.33,0-7.854,3.522-7.854,7.852
		c0,4.33,3.523,7.854,7.854,7.854C255.079,239.487,258.602,235.964,258.602,231.634z"/>
	<path style="fill:#231F20;" d="M261.546,271.727c0-4.331-3.523-7.853-7.853-7.853c-4.33,0-7.854,3.523-7.854,7.853
		c0,4.33,3.523,7.852,7.854,7.852C258.022,279.579,261.546,276.057,261.546,271.727z"/>
	<path style="fill:#231F20;" d="M268.411,311.817c0-4.331-3.523-7.854-7.852-7.854c-4.33,0-7.853,3.523-7.853,7.854
		c0,4.331,3.523,7.854,7.853,7.854C264.888,319.671,268.411,316.148,268.411,311.817z"/>
	<path style="fill:#231F20;" d="M266.444,344.056c-4.33,0-7.854,3.523-7.854,7.854c0,4.331,3.523,7.854,7.854,7.854
		c4.33,0,7.853-3.523,7.853-7.854C274.298,347.579,270.774,344.056,266.444,344.056z"/>
</g>
<g>
</g>
<g>
</g>
<g>
</g>
<g>
</g>
<g>
</g>
<g>
</g>
<g>
</g>
<g>
</g>
<g>
</g>
<g>
</g>
<g>
</g>
<g>
</g>
<g>
</g>
<g>
</g>
<g>
</g>
</svg>
