<?xml version="1.0" encoding="iso-8859-1"?>
<!-- Generator: Adobe Illustrator 19.0.0, SVG Export Plug-In . SVG Version: 6.00 Build 0)  -->
<svg version="1.1" id="Capa_1" xmlns="http://www.w3.org/2000/svg" xmlns:xlink="http://www.w3.org/1999/xlink" x="0px" y="0px"
	 viewBox="0 0 511.908 511.908" style="enable-background:new 0 0 511.908 511.908;" xml:space="preserve">
<g>
	<g>
		<path d="M198.402,176.796c-1.75-1.34-4.257-1.024-5.608,0.734C113.3,280.87,64.653,433.187,64.176,434.718
			c-0.663,2.102,0.5,4.351,2.609,5.015c0.398,0.126,0.805,0.188,1.203,0.188c1.702,0,3.272-1.085,3.811-2.797
			c0.477-1.516,48.71-152.512,127.337-254.72C200.48,180.654,200.152,178.143,198.402,176.796z"/>
	</g>
</g>
<g>
	<g>
		<path d="M447.731,434.719c-0.476-1.532-49.124-153.848-128.617-257.188c-1.351-1.765-3.875-2.082-5.609-0.734
			c-1.749,1.346-2.077,3.858-0.733,5.608c78.626,102.208,126.859,253.204,127.336,254.72c0.54,1.711,2.11,2.796,3.812,2.796
			c0.398,0,0.805-0.063,1.202-0.187C447.231,439.07,448.395,436.821,447.731,434.719z"/>
	</g>
</g>
<g>
	<g>
		<path d="M446.576,432.937c-1.649-1.468-4.179-1.327-5.64,0.328c-0.633,0.704-64.402,70.645-184.983,70.645
			c-120.579,0-184.349-69.942-184.982-70.645c-1.476-1.655-4.007-1.796-5.639-0.328c-1.648,1.469-1.796,3.993-0.336,5.641
			c0.656,0.733,66.621,73.33,190.958,73.33s190.302-72.597,190.958-73.33C448.373,436.929,448.224,434.406,446.576,432.937z"/>
	</g>
</g>
<g>
	<g>
		<path d="M434.674,422.283c-1.618-1.476-4.163-1.335-5.64,0.289c-0.594,0.656-60.638,65.34-173.079,65.34
			c-112.44,0-172.484-64.684-173.078-65.34c-1.476-1.632-4.023-1.772-5.64-0.289c-1.64,1.477-1.781,3.993-0.305,5.641
			c0.601,0.678,62.223,67.987,179.022,67.987c116.8,0,178.421-67.309,179.025-67.987
			C436.455,426.275,436.315,423.76,434.674,422.283z"/>
	</g>
</g>
<g>
	<g>
		<path d="M332.659,56.056c-2.147-0.441-4.257,1.039-4.655,3.218l-15.998,87.986c-0.39,2.171,1.047,4.252,3.218,4.647
			c0.243,0.046,0.485,0.066,0.727,0.066c1.891,0,3.578-1.351,3.929-3.286l15.997-87.984
			C336.267,58.533,334.83,56.451,332.659,56.056z"/>
	</g>
</g>
<g>
	<g>
		<path d="M199.902,147.259l-15.997-87.984c-0.399-2.179-2.523-3.652-4.656-3.218c-2.171,0.394-3.609,2.476-3.218,4.647
			l15.996,87.985c0.352,1.933,2.039,3.284,3.929,3.284c0.243,0,0.485-0.02,0.728-0.067
			C198.856,151.512,200.293,149.431,199.902,147.259z"/>
	</g>
</g>
<g>
	<g>
		<path d="M163.97,0c-11.029,0-19.996,8.972-19.996,19.997c0,2.21,1.789,3.999,3.999,3.999c2.211,0,4-1.789,3.999-3.999
			c0-6.616,5.382-11.998,11.998-11.998c2.211,0,4-1.789,4-3.999C167.97,1.789,166.181,0,163.97,0z"/>
	</g>
</g>
<g>
	<g>
		<path d="M147.973,15.997c-2.21,0-3.999,1.789-3.999,4v47.991c0,2.21,1.789,3.999,3.999,3.999c2.211,0,4-1.789,4-3.999V19.997
			C151.973,17.786,150.184,15.997,147.973,15.997z"/>
	</g>
</g>
<g>
	<g>
		<path d="M171.969,71.987h-15.997c-2.211,0-4,1.789-4,3.999c0,2.211,1.789,4,4,4h15.997c2.21,0,3.999-1.789,3.999-4
			C175.968,73.776,174.179,71.987,171.969,71.987z"/>
	</g>
</g>
<g>
	<g>
		<path d="M211.961,0H163.97c-2.21,0-3.999,1.789-3.999,4c0,2.21,1.789,3.999,3.999,3.999h47.991c2.211,0,4-1.789,4-3.999
			C215.961,1.789,214.172,0,211.961,0z"/>
	</g>
</g>
<g>
	<g>
		<path d="M155.973,71.987c-2.204,0-4-1.793-4-3.999c0-2.211-1.789-3.999-4-3.999c-2.21,0-3.999,1.788-3.999,3.999
			c0,6.616,5.382,11.998,11.998,11.998c2.21,0,3.999-1.789,4-4C159.972,73.776,158.183,71.987,155.973,71.987z"/>
	</g>
</g>
<g>
	<g>
		<path d="M347.969,0c-2.211,0-3.999,1.789-3.999,4c0,2.21,1.788,3.999,3.999,3.999c6.616,0,11.998,5.382,11.998,11.998
			c0,2.21,1.789,3.999,3.999,3.999c2.211,0,3.999-1.789,3.999-3.999C367.965,8.972,358.998,0,347.969,0z"/>
	</g>
</g>
<g>
	<g>
		<path d="M363.966,15.997c-2.21,0-3.999,1.789-3.999,4v47.991c0,2.21,1.789,3.999,3.999,3.999c2.211,0,3.999-1.789,3.999-3.999
			V19.997C367.965,17.786,366.177,15.997,363.966,15.997z"/>
	</g>
</g>
<g>
	<g>
		<path d="M355.968,71.987h-15.997c-2.211,0-4,1.789-4,3.999c0,2.211,1.789,4,4,4h15.997c2.21,0,3.999-1.789,3.999-4
			C359.967,73.776,358.178,71.987,355.968,71.987z"/>
	</g>
</g>
<g>
	<g>
		<path d="M347.969,0h-48.022c-2.21,0-3.999,1.789-3.999,4c0,2.21,1.789,3.999,3.999,3.999h48.022c2.211,0,4-1.789,4-3.999
			C351.969,1.789,350.18,0,347.969,0z"/>
	</g>
</g>
<g>
	<g>
		<path d="M363.966,63.989c-2.21,0-3.999,1.788-3.999,3.999c0,2.206-1.797,3.999-3.999,3.999c-2.211,0-3.999,1.789-3.999,3.999
			c0,2.211,1.788,4,3.999,4c6.616,0,11.997-5.382,11.997-11.998C367.965,65.777,366.177,63.989,363.966,63.989z"/>
	</g>
</g>
<g>
	<g>
		<path d="M299.948,4c-2.21,0-3.999,1.788-3.999,3.999c0,22.051-17.943,39.992-39.994,39.992c-22.051,0-39.993-17.941-39.993-39.992
			c0-2.211-1.789-3.999-4-3.999c-2.21,0-3.999,1.788-3.999,3.999c0,26.464,21.527,47.991,47.991,47.991s47.991-21.527,47.993-47.991
			C303.947,5.788,302.159,4,299.948,4z"/>
	</g>
</g>
<g>
	<g>
		<path d="M299.946,0c-2.21,0-3.999,1.789-3.999,4v3.999c0,2.21,1.789,3.999,3.999,3.999c2.211,0,3.999-1.789,3.999-3.999V4
			C303.945,1.789,302.157,0,299.946,0z"/>
	</g>
</g>
<g>
	<g>
		<path d="M211.961,0c-2.21,0-3.999,1.789-3.999,4v3.999c0,2.21,1.789,3.999,3.999,3.999c2.211,0,4-1.789,4-3.999V4
			C215.961,1.789,214.172,0,211.961,0z"/>
	</g>
</g>
<g>
	<g>
		<path d="M283.949,0h-55.991c-2.21,0-3.999,1.789-3.999,4c0,2.21,1.789,3.999,3.999,3.999h55.991c2.211,0,3.999-1.789,3.999-3.999
			C287.948,1.789,286.16,0,283.949,0z"/>
	</g>
</g>
<g>
	<g>
		<path d="M267.952,15.997h-23.996c-2.211,0-4,1.789-4,4c0,2.21,1.79,3.999,4,3.999h23.996c2.21,0,3.999-1.789,3.999-3.999
			C271.951,17.786,270.162,15.997,267.952,15.997z"/>
	</g>
</g>
<g>
	<g>
		<path d="M235.957,167.97h-39.993c-2.21,0-3.999,1.789-3.999,4c0,2.21,1.789,3.999,3.999,3.999h39.993
			c2.211,0,3.999-1.789,3.999-3.999C239.956,169.759,238.167,167.97,235.957,167.97z"/>
	</g>
</g>
<g>
	<g>
		<path d="M235.957,151.973h-39.993c-2.21,0-3.999,1.789-3.999,4c0,2.21,1.789,3.999,3.999,3.999h39.993
			c2.211,0,3.999-1.789,3.999-3.999C239.956,153.762,238.167,151.973,235.957,151.973z"/>
	</g>
</g>
<g>
	<g>
		<path d="M315.943,167.97h-39.992c-2.211,0-4,1.789-4,4c0,2.21,1.789,3.999,4,3.999h39.992c2.211,0,3.999-1.789,3.999-3.999
			C319.942,169.759,318.154,167.97,315.943,167.97z"/>
	</g>
</g>
<g>
	<g>
		<path d="M315.943,151.973h-39.992c-2.211,0-4,1.789-4,4c0,2.21,1.789,3.999,4,3.999h39.992c2.211,0,3.999-1.789,3.999-3.999
			C319.942,153.762,318.154,151.973,315.943,151.973z"/>
	</g>
</g>
<g>
	<g>
		<path d="M195.964,151.973c-2.21,0-3.999,1.789-3.999,4v15.997c0,2.21,1.789,3.999,3.999,3.999c2.211,0,4-1.789,4-3.999v-15.997
			C199.964,153.762,198.175,151.973,195.964,151.973z"/>
	</g>
</g>
<g>
	<g>
		<path d="M315.943,151.973c-2.211,0-3.999,1.789-3.999,4v15.997c0,2.21,1.788,3.999,3.999,3.999s3.999-1.789,3.999-3.999v-15.997
			C319.942,153.762,318.154,151.973,315.943,151.973z"/>
	</g>
</g>
<g>
	<g>
		<path d="M255.954,147.974c-8.819,0-15.997,7.175-15.997,15.997c0,8.822,7.179,15.997,15.997,15.997
			c8.819,0,15.998-7.175,15.998-15.997C271.952,155.149,264.774,147.974,255.954,147.974z M255.954,171.97
			c-4.413,0-7.998-3.59-7.998-7.999s3.585-7.998,7.998-7.998c4.413,0,8,3.589,8,7.998S260.368,171.97,255.954,171.97z"/>
	</g>
</g>
<g>
	<g>
		<path d="M255.954,199.964c-2.21,0-3.999,1.789-3.999,4v271.95c0,2.211,1.789,4,3.999,4c2.211,0,3.999-1.789,4-4v-271.95
			C259.954,201.753,258.165,199.964,255.954,199.964z"/>
	</g>
</g>
<g>
	<g>
		<path d="M221.654,200.338c-2.015-0.921-4.382-0.07-5.319,1.934c-55.661,119.279-64.277,243.835-64.355,245.077
			c-0.141,2.203,1.531,4.108,3.734,4.249c0.086,0.008,0.172,0.008,0.258,0.008c2.093,0,3.851-1.625,3.99-3.742
			c0.078-1.227,8.584-124.274,63.621-242.211C224.521,203.654,223.654,201.272,221.654,200.338z"/>
	</g>
</g>
<g>
	<g>
		<path d="M303.57,202.273c-0.937-2.004-3.303-2.856-5.319-1.934c-1.999,0.933-2.867,3.316-1.929,5.315
			c55.006,117.874,63.543,240.984,63.621,242.211c0.14,2.116,1.898,3.741,3.991,3.741c0.086,0,0.172,0,0.258-0.007
			c2.203-0.141,3.874-2.046,3.733-4.249C367.847,446.108,359.232,321.552,303.57,202.273z"/>
	</g>
</g>
<g>
</g>
<g>
</g>
<g>
</g>
<g>
</g>
<g>
</g>
<g>
</g>
<g>
</g>
<g>
</g>
<g>
</g>
<g>
</g>
<g>
</g>
<g>
</g>
<g>
</g>
<g>
</g>
<g>
</g>
</svg>
