<?xml version="1.0"?>
<svg xmlns="http://www.w3.org/2000/svg" viewBox="0 0 512 512" width="512" height="512"><g id="Out_line" data-name="Out line"><path d="M495.94824,407.0918l-32-280q-.03809-.33252-.10351-.66065l-8-40a8.00277,8.00277,0,0,0-8.83692-6.36963L256,103.9375,64.99219,80.06152a7.9994,7.9994,0,0,0-8.83692,6.36963l-8,40q-.06517.32813-.10351.66065l-32,280a8.00008,8.00008,0,0,0,7.35742,8.88623l216,16q.3003.02269.59717.02246a8.001,8.001,0,0,0,7.86474-6.56934L256,380.72217l8.12891,44.709a8.00017,8.00017,0,0,0,7.86474,6.56934c.19776-.00049.39746-.00733.59717-.02246l216-16a8.00008,8.00008,0,0,0,7.35742-8.88623ZM448.96533,136.90143l11.28552,98.74835A92.58125,92.58125,0,0,1,405.0459,165.6123l-3.83032-22.98089Zm-2.5061-15.81378-89.90991,10.78924-2.9989-24.00842,88.06335-11.00812ZM343.14014,153.61377l-24.269,4.85352-5.69116-45.55243,24.49365-3.06177Zm-42.87195-14.98322L264,142.98273V119.0625l33.30322-4.163ZM264,159.09717l16-1.92v97.838A34.1902,34.1902,0,0,1,264,283.999Zm-16-16.11444-36.26819-4.35218,2.965-23.731L248,119.0625Zm-73.67358-33.12964,24.49365,3.06177-5.69116,45.55243-24.269-4.85352Zm-15.87684-1.98462-2.9989,24.00842L65.54077,121.08765l4.84546-24.2273Zm-47.66516,34.76294-3.83032,22.98138a92.582,92.582,0,0,1-55.20495,70.03693l11.28552-98.74829ZM32.89355,400.63672,49.708,253.51031a108.5796,108.5796,0,0,0,73.02832-85.26715l3.95068-23.70343,26.7804,3.21369-1.40589,11.25488a8.00034,8.00034,0,0,0,6.36963,8.83643l40,8a8.00066,8.00066,0,0,0,9.50733-6.853l1.80969-14.48468L248,159.09723v176.1806l-8.72144,47.96784-182.614-15.21784-1.3291,15.94434,181.06763,15.089L233.416,415.49023ZM278.584,415.49023,264,335.27881V301.83508a50.16709,50.16709,0,0,0,32-46.81994V155.2572l6.25183-.75018,1.80969,14.48468a8.00054,8.00054,0,0,0,9.50733,6.853l40-8a8.00034,8.00034,0,0,0,6.36963-8.83643l-1.40589-11.25488,26.7804-3.21369,3.95068,23.703A108.57956,108.57956,0,0,0,462.292,253.51031l13.20044,115.50446-180.157,15.01306,1.3291,15.94434L477.31006,384.9184l1.79639,15.71832Z"/></g></svg>
