<svg height="511pt" viewBox="-86 0 511 511.99968" width="511pt" xmlns="http://www.w3.org/2000/svg"><path d="m337.628906 444.324219c-4.171875-9.65625-17.890625-62.042969-39.140625-157.320313-2.636719-11.828125-9.355469-27.167968-16.46875-43.414062-8.445312-19.296875-18.023437-41.167969-18.023437-52.394532 0-11.800781 4.660156-23.78125 9.589844-36.464843 3.417968-8.792969 7.027343-18.078125 9.453124-28.125 18.691407-.679688 51.328126-5.285157 52.414063-36.554688.777344-22.339843-12.816406-56.910156-36.90625-76.097656-16.019531-12.753906-34.425781-16.867187-53.242187-11.910156-1.335938.328125-2.628907.949219-3.71875 1.792969-3.507813 2.710937-22.890626 7.84375-71.109376 7.84375-48.222656 0-67.601562-5.132813-71.113281-7.84375-1.0625-.820313-2.328125-1.441407-3.628906-1.773438-5.277344-1.398438-10.609375-2.1210938-15.824219-2.05859375-5.519531.03515625-9.96875 4.53906275-9.933594 10.06249975.035157 5.503906 4.503907 9.9375 10 9.9375h.066407c1.765625-.023437 3.570312.105469 5.382812.351563 5.574219 15.902343 16.101563 28.785156 30.722657 37.503906 14.597656 8.699219 33.378906 13.300781 54.328124 13.300781 20.945313 0 39.730469-4.601562 54.324219-13.304687 14.621094-8.714844 25.148438-21.601563 30.726563-37.5 10.769531-1.445313 21.027344 1.652343 30.5625 9.246093 19.96875 15.902344 29.890625 44.921876 29.375 59.753907-.164063 4.667969-.519532 14.960937-29.59375 17.007812.25-8.101562-.59375-16.699219-3.070313-25.890625-1.4375-5.332031-6.925781-8.488281-12.257812-7.054687-5.332031 1.4375-8.492188 6.925781-7.054688 12.257812 5.816407 21.589844-.730469 41.707031-8.542969 61.808594-5.382812 13.84375-10.949218 28.15625-10.949218 43.710937 0 15.414063 9.574218 37.273438 19.707031 60.414063 6.414063 14.65625 13.050781 29.8125 15.265625 39.746094 15.070312 67.570312 33.574219 145.320312 40.300781 160.894531 1.839844 4.261719 1.324219 7.125.066407 7.980469-10.410157 7.078125-21.796876 12.839843-34.761719 17.417969-1.40625-5.445313-2.875-11.019532-4.359375-16.503907-1.4375-5.332031-6.929688-8.484375-12.261719-7.046875-5.332031 1.441406-8.488281 6.933594-7.046875 12.265625 1.519531 5.625 3.03125 11.34375 4.464844 16.910157-12.796875 3.078124-27.03125 5.28125-43.105469 6.707031.492187-20.292969 1.59375-47.03125 3.472656-71.167969 1.738281-22.34375 3.628907-35.875 5.1875-44.003906.917969 1.957031 1.949219 4.273437 3.085938 7.019531 2.117187 5.101563 7.96875 7.515625 13.070312 5.402344 5.101563-2.117188 7.519531-7.96875 5.402344-13.070313-7.3125-17.625-13.882813-28.546875-24.011719-28.546875-12.042968 0-15.199218 15.570313-16.894531 23.933594-1.929687 9.5-3.652344 22.878906-5.125 39.753906-2.367187 27.117188-3.691406 58.566407-4.226563 82.015625-9.921874.460938-20.480468.683594-31.753906.683594-11.269531 0-21.828125-.222656-31.75-.683594-.535156-23.449218-1.859375-54.898437-4.226562-82.015625-1.472656-16.875-3.195313-30.253906-5.125-39.753906-1.695313-8.363281-4.851563-23.933594-16.894532-23.933594-10.089843 0-18.574218 9.121094-34.480468 57.234375-8.992188 27.199219-17.195313 57.695313-21.617188 74.800782-12.964844-4.578126-24.355468-10.339844-34.761718-17.417969-1.257813-.855469-1.773438-3.71875.066406-7.976563 6.726562-15.578125 25.226562-93.328125 40.296875-160.898437 2.214843-9.933594 8.851562-25.085938 15.269531-39.742188 10.132812-23.144531 19.703125-45.003906 19.703125-60.417969 0-15.554687-5.5625-29.867187-10.945313-43.710937-7.816406-20.101563-14.359374-40.21875-8.542968-61.808594 1.4375-5.332031-1.722656-10.820312-7.054688-12.257812-5.332031-1.433594-10.820312 1.722656-12.257812 7.054687-2.476563 9.191406-3.320313 17.789063-3.070313 25.890625-29.078125-2.046875-29.433593-12.335937-29.59375-17.003906-.125-3.582031.367188-7.96875 1.417969-12.691406 1.203125-5.390625-2.1875-10.734375-7.582031-11.9375-5.390625-1.207031-10.734375 2.191406-11.9375 7.582031-1.4375 6.441406-2.074219 12.414062-1.886719 17.742188 1.085938 31.265624 33.722656 35.871093 52.414062 36.550781 2.421876 10.046875 6.035157 19.335937 9.453126 28.125 4.929687 12.683593 9.585937 24.664062 9.585937 36.464843 0 11.230469-9.574219 33.101563-18.023437 52.394532-7.113282 16.246094-13.828126 31.589844-16.464844 43.414062-21.253906 95.277344-34.972656 147.667969-39.140625 157.320313-6.378907 14.765625-1.054688 26.933593 7.046875 32.445312 46.53125 31.640625 105.589844 35.230469 160.105468 35.230469 54.554688 0 113.550782-3.574219 160.105469-35.230469 8.101563-5.511719 13.421875-17.679687 7.046875-32.445312zm-167.152344-393.164063c-16.792968 0-43.492187-3.449218-58.542968-23.105468 14.34375 2.40625 33.894531 3.625 58.542968 3.625 24.644532 0 44.195313-1.21875 58.539063-3.625-15.050781 19.65625-41.75 23.105468-58.539063 23.105468zm-75.488281 364.097656c6.671875-20.800781 11.613281-33.152343 15.035157-40.449218 1.558593 8.128906 3.449218 21.660156 5.1875 44.003906 1.878906 24.136719 2.980468 50.875 3.472656 71.167969-16.074219-1.425781-30.308594-3.628907-43.105469-6.707031 4.148437-16.097657 11.292969-42.699219 19.410156-68.015626zm0 0"/><path d="m37.867188 42.382812c2.398437 0 4.808593-.859374 6.722656-2.601562l.003906-.003906c4.085938-3.714844 4.386719-10.039063.671875-14.125-3.714844-4.085938-10.042969-4.386719-14.128906-.671875-4.085938 3.714843-4.386719 10.039062-.671875 14.128906 1.972656 2.167969 4.683594 3.273437 7.402344 3.273437zm0 0"/><path d="m248.671875 423.851562c1.460937 4.089844 5.3125 6.640626 9.417969 6.640626 1.117187 0 2.25-.1875 3.363281-.585938 5.203125-1.859375 7.914063-7.578125 6.054687-12.78125l-.003906-.007812c-1.855468-5.199219-7.574218-7.90625-12.777344-6.050782-5.203124 1.859375-7.910156 7.585938-6.054687 12.785156zm0 0"/></svg>