<?xml version="1.0" encoding="UTF-8" standalone="no"?>
<!-- Generator: Adobe Illustrator 19.0.0, SVG Export Plug-In . SVG Version: 6.00 Build 0)  -->

<svg
   xmlns:dc="http://purl.org/dc/elements/1.1/"
   xmlns:cc="http://creativecommons.org/ns#"
   xmlns:rdf="http://www.w3.org/1999/02/22-rdf-syntax-ns#"
   xmlns:svg="http://www.w3.org/2000/svg"
   xmlns="http://www.w3.org/2000/svg"
   xmlns:sodipodi="http://sodipodi.sourceforge.net/DTD/sodipodi-0.dtd"
   xmlns:inkscape="http://www.inkscape.org/namespaces/inkscape"
   version="1.1"
   id="Layer_1"
   x="0px"
   y="0px"
   viewBox="0 0 512 512"
   style="enable-background:new 0 0 512 512;"
   xml:space="preserve"
   sodipodi:docname="sshortdress.svg"
   inkscape:version="0.92.4 (5da689c313, 2019-01-14)"><metadata
   id="metadata3833"><rdf:RDF><cc:Work
       rdf:about=""><dc:format>image/svg+xml</dc:format><dc:type
         rdf:resource="http://purl.org/dc/dcmitype/StillImage" /><dc:title></dc:title></cc:Work></rdf:RDF></metadata><defs
   id="defs3831" /><sodipodi:namedview
   pagecolor="#ffffff"
   bordercolor="#666666"
   borderopacity="1"
   objecttolerance="10"
   gridtolerance="10"
   guidetolerance="10"
   inkscape:pageopacity="0"
   inkscape:pageshadow="2"
   inkscape:window-width="1920"
   inkscape:window-height="1001"
   id="namedview3829"
   showgrid="false"
   inkscape:zoom="1.5820312"
   inkscape:cx="256"
   inkscape:cy="256"
   inkscape:window-x="-9"
   inkscape:window-y="-9"
   inkscape:window-maximized="1"
   inkscape:current-layer="Layer_1" />
<g
   id="g3778">
	<g
   id="g3776">
		<path
   d="M 392.773,92.542 C 392.377,79.502 384.374,67.754 372.381,62.614 L 334.244,46.27 C 332.298,42.147 329.816,37.719 326.652,33.288 315.807,18.104 294.745,0.004 255.998,0.002 c -0.004,-0.003 0,-0.001 -0.002,0 h -0.002 c -38.746,0.002 -59.809,18.102 -70.654,33.286 -3.359,4.703 -5.952,9.406 -7.948,13.742 l -37.48,15.634 c -12.171,5.076 -20.294,16.873 -20.694,30.055 l -1.72901,90.56164 c -0.102,3.365 -0.6184,15.91748 2.5076,17.16748 L 161.97958,222.29831 145.38,503.561 c -0.115,2.197 0.677,4.343 2.19,5.94 1.514,1.595 3.616,2.499 5.816,2.499 h 205.227 c 2.2,0 4.302,-0.904 5.816,-2.499 1.514,-1.596 2.306,-3.743 2.19,-5.94 l -21.65637,-285.05528 36.2941,-20.58599 c 3.125,-1.251 12.09009,-4.322 11.98909,-7.686 z M 298.217,61.71 V 27.591 c 15.941,10.723 22.642,26.294 25.264,34.992 l -18.717,6.239 c -2.371,0.79 -4.237,2.64 -5.048,5.005 -0.81,2.363 -0.474,4.968 0.913,7.048 l 13.792,20.688 -43.596,52.644 22.011,-61.228 c 3.57,-10.068 5.381,-20.588 5.381,-31.269 z m -16.032,10e-4 c 0,8.849 -1.501,17.567 -4.448,25.877 L 255.853,148.463 234.269,87.619 C 231.31,79.277 229.81,70.561 229.81,61.711 v -11.47 h 52.376 v 11.47 z m -52.376,-41.84 c 7.407,-2.392 16.055,-3.836 26.183,-3.835 10.133,0 18.784,1.445 26.192,3.838 V 34.207 H 229.808 V 19.871 Z m -16.032,7.717 v 34.123 c 0,10.681 1.811,21.201 5.382,31.269 l 21.937,61.838 -43.547,-53.224 13.812,-20.719 c 1.386,-2.079 1.723,-4.685 0.913,-7.048 -0.811,-2.364 -2.678,-4.214 -5.048,-5.005 l -18.715,-6.238 c 2.627,-8.711 9.331,-24.278 25.266,-34.996 z m -61.022,335.823 -25.393,-10.158 0.712,-23.474 -0.712,23.474 z m 69.574,-132.342 v 264.898 h -60.494 l 7.399,-140.59 30.491,-15.246 c 3.96,-1.981 5.566,-6.795 3.585,-10.756 -1.98,-3.959 -6.794,-5.565 -10.755,-3.585 l -22.353,11.176 1.96801,-156.8719 c 0.233,-4.422 0.62959,-41.69524 -3.79241,-41.92824 -4.428,-0.265 -3.7693,37.29534 -4.0023,41.71734 l 0.60728,23.24604 -38.92098,-19.99249 3.49151,-89.299651 C 129.76311,86.932099 139.706,80.121 146.082,77.461 l 24.991,-10.424 c -0.394,3.728 1.848,7.251 5.43,8.445 l 15.697,5.232 -11.28,16.921 c -1.955,2.932 -1.766,6.796 0.466,9.523 l 63.816,77.997 -11.205,13.531 c -7.525,9.086 -11.668,20.587 -11.668,32.383 z m 111.175,-51.606 8.289,157.504 -22.353,-11.176 c -3.959,-1.981 -8.774,-0.375 -10.755,3.585 -1.981,3.96 -0.375,8.776 3.585,10.756 l 30.491,15.246 7.4,140.59 h -111.8 v -264.9 c 0,-8.071 2.835,-15.94 7.982,-22.157 l 84.232,-101.717 c 2.259,-2.728 2.461,-6.613 0.496,-9.559 l -11.28,-16.921 15.697,-5.232 c 3.675,-1.225 5.948,-4.903 5.401,-8.738 -0.004,-0.031 -0.015,-0.104 -0.03,-0.197 l 25.207,10.802 c 6.282,2.693 11.7392,10.110198 11.9462,16.941198 l 0.96811,85.685062 -37.65678,23.78507 -1.28901,-25.14233 c -0.233,-4.421 0.002,-40.71832 -4.42469,-40.45432 -4.422,0.235 -2.33783,36.87732 -2.10583,41.29932 z m 25.737,183.948 25.392,-10.158 -0.711,-23.474 0.711,23.474 z"
   id="path3774"
   inkscape:connector-curvature="0"
   sodipodi:nodetypes="ccccccccccccccccssccccccsccccccccsccccsccccccccccccscccccccccccccsccccsccccccccccccccccscccsccccsccccccccccccccccccc" />
	</g>
</g>
<g
   id="g3784">
	<g
   id="g3782">
		<path
   d="M264.634,247.985h-0.086c-4.427,0-7.974,3.588-7.974,8.017c0,4.428,3.632,8.017,8.059,8.017    c4.427,0,8.017-3.588,8.017-8.017C272.651,251.573,269.062,247.985,264.634,247.985z"
   id="path3780" />
	</g>
</g>
<g
   id="g3790">
	<g
   id="g3788">
		<path
   d="M264.634,350.598h-0.086c-4.427,0-7.974,3.588-7.974,8.017s3.632,8.017,8.059,8.017c4.427,0,8.017-3.588,8.017-8.017    S269.062,350.598,264.634,350.598z"
   id="path3786" />
	</g>
</g>
<g
   id="g3796">
	<g
   id="g3794">
		<path
   d="M264.634,299.292h-0.086c-4.427,0-7.974,3.588-7.974,8.017s3.632,8.017,8.059,8.017c4.427,0,8.017-3.588,8.017-8.017    S269.062,299.292,264.634,299.292z"
   id="path3792" />
	</g>
</g>
<g
   id="g3798">
</g>
<g
   id="g3800">
</g>
<g
   id="g3802">
</g>
<g
   id="g3804">
</g>
<g
   id="g3806">
</g>
<g
   id="g3808">
</g>
<g
   id="g3810">
</g>
<g
   id="g3812">
</g>
<g
   id="g3814">
</g>
<g
   id="g3816">
</g>
<g
   id="g3818">
</g>
<g
   id="g3820">
</g>
<g
   id="g3822">
</g>
<g
   id="g3824">
</g>
<g
   id="g3826">
</g>
</svg>